# xmcd
#
# Track frame offsets: 
#        150
#        10725
#        29559
#        37644
#        55660
#        65537
#        85301
#        103870
#        125438
#        135007
#        152114
#
# Disc length: 2311 seconds
#
# Revision: 0
# Processed by: cddbd v1.5.2PL0 Copyright (c) Steve Scherf et al.
# Submitted via: ExactAudioCopy v0.99pb4
#
DISCID=8009050b
DTITLE=Micah P. Hinson and the red empire orchestra - The red empire o
DTITLE=rchestra
DYEAR=2008
DGENRE=Country
TTITLE0=Come home quickly, darlin'
TTITLE1=Tell me it ain't so
TTITLE2=When we embraced
TTITLE3=I keep havin' these dreams
TTITLE4=Throw the stone
TTITLE5=Sunrise over the Olympus Mons
TTITLE6=The fire came up to my knees
TTITLE7=You will find me
TTITLE8=The wishing well and the willow tree
TTITLE9=We won't have to be lonesome
TTITLE10=Dyin' alone
EXTD=
EXTT0=
EXTT1=
EXTT2=
EXTT3=
EXTT4=
EXTT5=
EXTT6=
EXTT7=
EXTT8=
EXTT9=
EXTT10=
PLAYORDER=
